<svg xmlns="http://www.w3.org/2000/svg" width="800" height="480" viewBox="0 0 800 480">
<rect width="100%" height="100%" fill="white"/>
<text x="400.0" y="28" text-anchor="middle" font-family="sans-serif" font-size="18">Output token throughput vs concurrency</text>
<path d="M 80 55 V 410 H 770" fill="none" stroke="#111827"/>
<text x="80.0" y="434" text-anchor="middle" font-family="sans-serif" font-size="12">1</text>
<text x="218.0" y="434" text-anchor="middle" font-family="sans-serif" font-size="12">4</text>
<text x="356.0" y="434" text-anchor="middle" font-family="sans-serif" font-size="12">8</text>
<text x="494.0" y="434" text-anchor="middle" font-family="sans-serif" font-size="12">16</text>
<text x="632.0" y="434" text-anchor="middle" font-family="sans-serif" font-size="12">32</text>
<text x="770.0" y="434" text-anchor="middle" font-family="sans-serif" font-size="12">64</text>
<path d="M 80 410.0 H 770" stroke="#e5e7eb"/>
<text x="72" y="414.0" text-anchor="end" font-family="sans-serif" font-size="11">0.00</text>
<path d="M 80 339.0 H 770" stroke="#e5e7eb"/>
<text x="72" y="343.0" text-anchor="end" font-family="sans-serif" font-size="11">74.06</text>
<path d="M 80 268.0 H 770" stroke="#e5e7eb"/>
<text x="72" y="272.0" text-anchor="end" font-family="sans-serif" font-size="11">148.13</text>
<path d="M 80 196.99999999999997 H 770" stroke="#e5e7eb"/>
<text x="72" y="200.99999999999997" text-anchor="end" font-family="sans-serif" font-size="11">222.19</text>
<path d="M 80 126.0 H 770" stroke="#e5e7eb"/>
<text x="72" y="130.0" text-anchor="end" font-family="sans-serif" font-size="11">296.26</text>
<path d="M 80 54.99999999999994 H 770" stroke="#e5e7eb"/>
<text x="72" y="58.99999999999994" text-anchor="end" font-family="sans-serif" font-size="11">370.32</text>
<polyline points="80.0,364.7038796785141 218.0,262.0805174083955 356.0,159.5887011676255 494.0,108.65981700164201 632.0,106.39189266948858 770.0,112.82476647044854" fill="none" stroke="#2563eb" stroke-width="2"/>
<circle cx="80.0" cy="364.7038796785141" r="3" fill="#2563eb"/>
<circle cx="218.0" cy="262.0805174083955" r="3" fill="#2563eb"/>
<circle cx="356.0" cy="159.5887011676255" r="3" fill="#2563eb"/>
<circle cx="494.0" cy="108.65981700164201" r="3" fill="#2563eb"/>
<circle cx="632.0" cy="106.39189266948858" r="3" fill="#2563eb"/>
<circle cx="770.0" cy="112.82476647044854" r="3" fill="#2563eb"/>
<text x="80" y="462" font-family="sans-serif" font-size="12" fill="#2563eb">direct</text>
<polyline points="80.0,364.89806861759763 218.0,250.35685266520858 356.0,106.1333544068928 494.0,84.32310834864654 632.0,64.49175426973812 770.0,66.55534734460713" fill="none" stroke="#059669" stroke-width="2"/>
<circle cx="80.0" cy="364.89806861759763" r="3" fill="#059669"/>
<circle cx="218.0" cy="250.35685266520858" r="3" fill="#059669"/>
<circle cx="356.0" cy="106.1333544068928" r="3" fill="#059669"/>
<circle cx="494.0" cy="84.32310834864654" r="3" fill="#059669"/>
<circle cx="632.0" cy="64.49175426973812" r="3" fill="#059669"/>
<circle cx="770.0" cy="66.55534734460713" r="3" fill="#059669"/>
<text x="260" y="462" font-family="sans-serif" font-size="12" fill="#059669">gateway_batch</text>
<polyline points="80.0,364.78090649557345 218.0,260.86182326324126 356.0,160.20596799513606 494.0,54.99999999999994 632.0,108.40595906712286 770.0,61.69329970724942" fill="none" stroke="#d97706" stroke-width="2"/>
<circle cx="80.0" cy="364.78090649557345" r="3" fill="#d97706"/>
<circle cx="218.0" cy="260.86182326324126" r="3" fill="#d97706"/>
<circle cx="356.0" cy="160.20596799513606" r="3" fill="#d97706"/>
<circle cx="494.0" cy="54.99999999999994" r="3" fill="#d97706"/>
<circle cx="632.0" cy="108.40595906712286" r="3" fill="#d97706"/>
<circle cx="770.0" cy="61.69329970724942" r="3" fill="#d97706"/>
<text x="440" y="462" font-family="sans-serif" font-size="12" fill="#d97706">gateway_no_batch</text>
<text x="400.0" y="440" text-anchor="middle" font-family="sans-serif" font-size="12">Concurrency</text>
</svg>
