<svg xmlns="http://www.w3.org/2000/svg" width="800" height="480" viewBox="0 0 800 480">
<rect width="100%" height="100%" fill="white"/>
<text x="400.0" y="28" text-anchor="middle" font-family="sans-serif" font-size="18">E2E p95 vs concurrency</text>
<path d="M 80 55 V 410 H 770" fill="none" stroke="#111827"/>
<text x="80.0" y="434" text-anchor="middle" font-family="sans-serif" font-size="12">1</text>
<text x="218.0" y="434" text-anchor="middle" font-family="sans-serif" font-size="12">4</text>
<text x="356.0" y="434" text-anchor="middle" font-family="sans-serif" font-size="12">8</text>
<text x="494.0" y="434" text-anchor="middle" font-family="sans-serif" font-size="12">16</text>
<text x="632.0" y="434" text-anchor="middle" font-family="sans-serif" font-size="12">32</text>
<text x="770.0" y="434" text-anchor="middle" font-family="sans-serif" font-size="12">64</text>
<path d="M 80 410.0 H 770" stroke="#e5e7eb"/>
<text x="72" y="414.0" text-anchor="end" font-family="sans-serif" font-size="11">0.00</text>
<path d="M 80 339.0 H 770" stroke="#e5e7eb"/>
<text x="72" y="343.0" text-anchor="end" font-family="sans-serif" font-size="11">5088.38</text>
<path d="M 80 268.0 H 770" stroke="#e5e7eb"/>
<text x="72" y="272.0" text-anchor="end" font-family="sans-serif" font-size="11">10176.77</text>
<path d="M 80 197.0 H 770" stroke="#e5e7eb"/>
<text x="72" y="201.0" text-anchor="end" font-family="sans-serif" font-size="11">15265.15</text>
<path d="M 80 126.0 H 770" stroke="#e5e7eb"/>
<text x="72" y="130.0" text-anchor="end" font-family="sans-serif" font-size="11">20353.53</text>
<path d="M 80 55.0 H 770" stroke="#e5e7eb"/>
<text x="72" y="59.0" text-anchor="end" font-family="sans-serif" font-size="11">25441.92</text>
<polyline points="80.0,372.30836155920474 218.0,362.1648661007286 356.0,352.58884266558806 494.0,314.2346496521073 632.0,230.85675585373406 770.0,55.0" fill="none" stroke="#2563eb" stroke-width="2"/>
<circle cx="80.0" cy="372.30836155920474" r="3" fill="#2563eb"/>
<circle cx="218.0" cy="362.1648661007286" r="3" fill="#2563eb"/>
<circle cx="356.0" cy="352.58884266558806" r="3" fill="#2563eb"/>
<circle cx="494.0" cy="314.2346496521073" r="3" fill="#2563eb"/>
<circle cx="632.0" cy="230.85675585373406" r="3" fill="#2563eb"/>
<circle cx="770.0" cy="55.0" r="3" fill="#2563eb"/>
<text x="80" y="462" font-family="sans-serif" font-size="12" fill="#2563eb">direct</text>
<polyline points="80.0,372.16635510123626 218.0,369.2705506304474 356.0,366.21612112000105 494.0,332.18342759961365 632.0,240.78973573807926 770.0,90.89993541593185" fill="none" stroke="#059669" stroke-width="2"/>
<circle cx="80.0" cy="372.16635510123626" r="3" fill="#059669"/>
<circle cx="218.0" cy="369.2705506304474" r="3" fill="#059669"/>
<circle cx="356.0" cy="366.21612112000105" r="3" fill="#059669"/>
<circle cx="494.0" cy="332.18342759961365" r="3" fill="#059669"/>
<circle cx="632.0" cy="240.78973573807926" r="3" fill="#059669"/>
<circle cx="770.0" cy="90.89993541593185" r="3" fill="#059669"/>
<text x="260" y="462" font-family="sans-serif" font-size="12" fill="#059669">gateway_batch</text>
<polyline points="80.0,372.2581345014891 218.0,362.08555095069295 356.0,352.0792417089457 494.0,333.6015293473283 632.0,231.45742573385542 770.0,111.79191003128994" fill="none" stroke="#d97706" stroke-width="2"/>
<circle cx="80.0" cy="372.2581345014891" r="3" fill="#d97706"/>
<circle cx="218.0" cy="362.08555095069295" r="3" fill="#d97706"/>
<circle cx="356.0" cy="352.0792417089457" r="3" fill="#d97706"/>
<circle cx="494.0" cy="333.6015293473283" r="3" fill="#d97706"/>
<circle cx="632.0" cy="231.45742573385542" r="3" fill="#d97706"/>
<circle cx="770.0" cy="111.79191003128994" r="3" fill="#d97706"/>
<text x="440" y="462" font-family="sans-serif" font-size="12" fill="#d97706">gateway_no_batch</text>
<text x="400.0" y="440" text-anchor="middle" font-family="sans-serif" font-size="12">Concurrency</text>
</svg>
